<svg width="19" height="19" viewBox="0 0 19 19" fill="none" xmlns="http://www.w3.org/2000/svg">
<path d="M2.69894 12.1071C2.27691 12.3357 1.8285 12.3841 1.35371 12.2522C0.878923 12.1203 0.518436 11.8521 0.272249 11.4477C-0.0266911 10.9377 -0.0794454 10.4102 0.113987 9.86504C0.307419 9.31991 0.685491 8.95063 1.2482 8.7572L10.1373 5.80296L11.0869 7.67574L2.69894 12.1071ZM3.27924 18.9915V13.0039L12.4849 8.15053L12.0364 7.22733L18.0504 4.22034L19 6.11949L11.7199 11.6059V18.9915H3.27924ZM4.86187 7.38559C3.84195 7.38559 2.97151 7.0251 2.25053 6.30413C1.52956 5.58316 1.16907 4.71271 1.16907 3.6928C1.16907 2.67288 1.52956 1.80244 2.25053 1.08146C2.97151 0.360487 3.84195 0 4.86187 0C5.88178 0 6.75223 0.360487 7.4732 1.08146C8.19418 1.80244 8.55466 2.67288 8.55466 3.6928C8.55466 4.71271 8.19418 5.58316 7.4732 6.30413C6.75223 7.0251 5.88178 7.38559 4.86187 7.38559Z" fill="#9F9F9F"/>
</svg>
