<svg width="18" height="17" viewBox="0 0 18 17" fill="none" xmlns="http://www.w3.org/2000/svg">
<path d="M4.84834 16.7794C4.09178 17.2358 3.15841 16.5586 3.35754 15.6978L4.31432 11.5616C4.39779 11.2007 4.27497 10.8233 3.99511 10.5806L0.784976 7.79753C0.117447 7.2188 0.473397 6.1221 1.35356 6.0457L5.59988 5.67709C5.96906 5.64505 6.29025 5.41147 6.43451 5.07014L8.07889 1.17942C8.42303 0.365149 9.57697 0.365148 9.92111 1.17941L11.5655 5.07014C11.7098 5.41147 12.0309 5.64505 12.4001 5.67709L16.6464 6.0457C17.5266 6.1221 17.8826 7.2188 17.215 7.79753L14.0049 10.5806C13.725 10.8233 13.6022 11.2007 13.6857 11.5616L14.6425 15.6978C14.8416 16.5586 13.9082 17.2358 13.1517 16.7794L9.51653 14.5866C9.19884 14.3949 8.80116 14.3949 8.48347 14.5866L4.84834 16.7794Z" fill="#FFC700"/>
</svg>
