<svg width="40" height="40" viewBox="0 0 40 40" fill="none" xmlns="http://www.w3.org/2000/svg">
<path d="M17.9614 40C16.4861 40 15.2297 38.9274 14.9985 37.4703L14.6757 35.4368C14.5054 34.3643 13.7582 33.4845 12.8008 32.9719C12.6685 32.901 12.5349 32.8271 12.4 32.75C12.291 32.6877 12.184 32.625 12.079 32.5619C11.1011 31.974 9.89338 31.8005 8.85585 32.2753L7.15116 33.0554C5.7361 33.703 4.06081 33.161 3.29317 31.8073L1.31783 28.3239C0.566623 26.9992 0.927123 25.3218 2.15627 24.4227L4.56552 22.6604C5.07249 22.2896 5.30228 21.6525 5.275 21.025V21.025C5.25833 20.6417 5.25 20.3 5.25 20C5.25 19.7 5.25833 19.3583 5.275 18.975V18.975C5.30228 18.3475 5.07249 17.7104 4.56553 17.3396L2.15627 15.5773C0.927124 14.6782 0.566623 13.0008 1.31783 11.6761L3.29318 8.19268C4.06081 6.83899 5.7361 6.29703 7.15116 6.9446L8.85585 7.72471C9.89338 8.19951 11.1011 8.02596 12.079 7.4381C12.184 7.375 12.291 7.3123 12.4 7.25C12.4998 7.19299 12.5989 7.13801 12.6973 7.08506C13.6995 6.54588 14.5119 5.63941 14.6889 4.51525L15.0011 2.53331C15.2308 1.07461 16.4879 0 17.9645 0H22.0386C23.5139 0 24.7703 1.07264 25.0015 2.5297L25.3243 4.56321C25.4946 5.63573 26.2393 6.51847 27.2085 7.00829C27.3457 7.07765 27.4846 7.14988 27.625 7.225C27.6913 7.26046 27.7567 7.29628 27.8211 7.33245C28.8811 7.92747 30.1714 8.16988 31.2767 7.66405L32.8488 6.9446C34.2639 6.29703 35.9392 6.839 36.7068 8.19268L38.6659 11.6475C39.424 12.9843 39.0493 14.6778 37.7979 15.57L35.4821 17.2211C34.9453 17.6038 34.6964 18.2664 34.725 18.925V18.925C34.7417 19.3083 34.75 19.6667 34.75 20C34.75 20.3333 34.7417 20.6833 34.725 21.05V21.05C34.6957 21.6941 34.9354 22.3422 35.4581 22.7197L37.821 24.4263C39.0612 25.322 39.4287 27.0074 38.6741 28.3381L36.7068 31.8073C35.9392 33.161 34.2639 33.703 32.8488 33.0554L31.1442 32.2753C30.1066 31.8005 28.898 31.9707 27.9348 32.5823C27.8333 32.6467 27.73 32.711 27.625 32.775C27.525 32.836 27.4251 32.8947 27.3254 32.9511C26.3223 33.5181 25.4852 34.4235 25.3045 35.5616L25.0015 37.4703C24.7703 38.9274 23.5139 40 22.0386 40H17.9614ZM20 26.5C21.8 26.5 23.3333 25.8667 24.6 24.6C25.8667 23.3333 26.5 21.8 26.5 20C26.5 18.2 25.8667 16.6667 24.6 15.4C23.3333 14.1333 21.8 13.5 20 13.5C18.2 13.5 16.6667 14.1333 15.4 15.4C14.1333 16.6667 13.5 18.2 13.5 20C13.5 21.8 14.1333 23.3333 15.4 24.6C16.6667 25.8667 18.2 26.5 20 26.5Z" fill="black"/>
</svg>
