<svg width="25" height="29" viewBox="0 0 25 29" fill="none" xmlns="http://www.w3.org/2000/svg">
<path d="M2 28.125C0.89543 28.125 0 27.2296 0 26.125V10.375C0 9.74549 0.296388 9.15271 0.8 8.775L11.3 0.9C12.0111 0.366667 12.9889 0.366667 13.7 0.9L24.2 8.775C24.7036 9.15271 25 9.74549 25 10.375V26.125C25 27.2296 24.1046 28.125 23 28.125H17.625C16.5204 28.125 15.625 27.2296 15.625 26.125V19.1875C15.625 18.0829 14.7296 17.1875 13.625 17.1875H11.375C10.2704 17.1875 9.375 18.0829 9.375 19.1875V26.125C9.375 27.2296 8.47957 28.125 7.375 28.125H2Z" fill="black"/>
</svg>
