<svg width="25" height="26" viewBox="0 0 25 26" fill="none" xmlns="http://www.w3.org/2000/svg">
<path d="M12.5 12.6688C10.7812 12.6688 9.375 12.1219 8.28125 11.0281C7.1875 9.93439 6.64062 8.52814 6.64062 6.80939C6.64062 5.09064 7.1875 3.68439 8.28125 2.59064C9.375 1.49689 10.7812 0.950012 12.5 0.950012C14.2188 0.950012 15.625 1.49689 16.7188 2.59064C17.8125 3.68439 18.3594 5.09064 18.3594 6.80939C18.3594 8.52814 17.8125 9.93439 16.7188 11.0281C15.625 12.1219 14.2188 12.6688 12.5 12.6688ZM3 25.2078C1.34315 25.2078 0 23.8647 0 22.2078V21.5359C0 20.5464 0.247396 19.7 0.742188 18.9969C1.23698 18.2938 1.875 17.7599 2.65625 17.3953C4.40104 16.6141 6.07422 16.0281 7.67578 15.6375C9.27734 15.2469 10.8854 15.0516 12.5 15.0516C14.1146 15.0516 15.7161 15.2534 17.3047 15.657C18.8932 16.0607 20.5599 16.6401 22.3047 17.3953C23.112 17.7599 23.763 18.2938 24.2578 18.9969C24.7526 19.7 25 20.5464 25 21.5359V22.2078C25 23.8647 23.6569 25.2078 22 25.2078H3Z" fill="black"/>
</svg>
